Coordinates
version=1
nRows=12
nColumns=46
inDegrees=yes

Units are S.I. units (second, meters, Newtons, ...)
Angles are in degrees.

endheader
time	pelvis_tilt	pelvis_list	pelvis_rotation	pelvis_tx	pelvis_ty	pelvis_tz	bb_angle	bb_tx	bb_ty	bb_tz	hip_flexion_r	hip_adduction_r	hip_rotation_r	knee_angle_r	knee_angle_r_beta	ankle_angle_r	subtalar_angle_r	mtp_angle_r	crank_angle_r	hip_flexion_l	hip_adduction_l	hip_rotation_l	knee_angle_l	knee_angle_l_beta	ankle_angle_l	subtalar_angle_l	mtp_angle_l	crank_angle_l	lumbar_extension	lumbar_bending	lumbar_rotation	arm_flex_r	arm_add_r	arm_rot_r	elbow_flex_r	pro_sup_r	wrist_flex_r	wrist_dev_r	arm_flex_l	arm_add_l	arm_rot_l	elbow_flex_l	pro_sup_l	wrist_flex_l	wrist_dev_l
      5.00000000	    -12.87027656	     -7.59965162	     -8.58326555	      0.18705681	      1.05217184	     -0.26737143	      0.00000000	      0.50000000	      0.00000000	      0.25000000	     82.53666094	      9.03507415	      8.74144874	    115.48347367	      2.01556685	     15.45712041	      4.65199829	      0.00000000	      0.00000000	     33.96313663	    -15.10183599	     -7.87549467	     33.66088986	      0.58749336	     -9.07894969	     -2.23495975	      0.00000000	      0.00000000	    -66.15323407	      9.59046505	     13.82427614	     89.43456819	    -20.02740627	     34.13762315	     68.38770189	     46.97960671	      0.00000000	      0.00000000	     65.68902035	    -22.64879843	     12.03874217	     73.81248521	     44.39796100	      0.00000000	      0.00000000
      5.00500000	    -13.08479518	     -8.04209018	     -9.22017907	      0.18650984	      1.05339914	     -0.26796621	      0.00000000	      0.50000000	      0.00000000	      0.25000000	     83.02175615	      9.53756929	      8.19160361	    114.33809550	      1.99557623	     16.31162952	      4.56780381	      0.00000000	      0.00000000	     34.08972448	    -15.66704023	     -7.56104989	     34.99437397	      0.61076705	     -9.43528649	     -3.46875529	      0.00000000	      0.00000000	    -66.41306769	      9.67602208	     14.21066379	     89.48927675	    -19.37536595	     34.24546848	     68.47886883	     46.89065896	      0.00000000	      0.00000000	     65.77914026	    -23.10146274	     11.61360109	     73.70006156	     44.35875412	      0.00000000	      0.00000000
      5.01000000	    -13.60564835	     -8.64866627	     -9.60924373	      0.18582492	      1.05421014	     -0.26855170	      0.00000000	      0.50000000	      0.00000000	      0.25000000	     83.64302215	      9.85226926	      7.29617598	    112.94199821	      1.97120973	     16.85233796	      4.12084725	      0.00000000	      0.00000000	     34.83764573	    -16.24665106	     -6.66554973	     36.59515686	      0.63870598	    -10.01926719	     -5.07087107	      0.00000000	      0.00000000	    -66.42425480	     10.25790262	     14.45106047	     89.52596370	    -18.00563168	     34.20301319	     68.27096652	     46.36741975	      0.00000000	      0.00000000	     65.30280950	    -23.88667041	     10.58295191	     73.79261563	     44.36796922	      0.00000000	      0.00000000
      5.01500000	    -13.74410247	     -8.88105741	    -10.24954168	      0.18568506	      1.05574671	     -0.26823580	      0.00000000	      0.50000000	      0.00000000	      0.25000000	     83.68234453	     10.36188221	      6.83802748	    111.47908733	      1.94567712	     17.84570768	      3.89561906	      0.00000000	      0.00000000	     35.00326862	    -16.70216565	     -6.52385580	     38.18316281	      0.66642191	    -10.28196216	     -6.11087761	      0.00000000	      0.00000000	    -66.75775723	      9.95212804	     14.56464345	     89.55386075	    -17.52100508	     34.37614413	     68.35899359	     46.27771386	      0.00000000	      0.00000000	     65.67932041	    -24.36601910	     10.15572055	     73.83012539	     44.35077217	      0.00000000	      0.00000000
      5.02000000	    -14.10130570	     -9.38878604	    -10.67466467	      0.18542634	      1.05689864	     -0.26844103	      0.00000000	      0.50000000	      0.00000000	      0.25000000	     83.76929890	     10.60780518	      5.94608679	    109.71850465	      1.91494916	     18.52686192	      3.39084955	      0.00000000	      0.00000000	     35.68522802	    -17.24511789	     -5.75964432	     40.02458450	      0.69856078	    -10.89530516	     -7.51201599	      0.00000000	      0.00000000	    -66.99866836	     10.37638907	     14.12337399	     89.58960493	    -15.21446874	     34.38894823	     67.85637770	     43.87793878	      0.00000000	      0.00000000	     64.43648742	    -25.98606825	      8.26691946	     75.33190997	     44.81621083	      0.00000000	      0.00000000
      5.02500000	    -14.10592171	     -9.73156403	    -10.90834277	      0.18520757	      1.05832280	     -0.26837655	      0.00000000	      0.50000000	      0.00000000	      0.25000000	     83.35342676	     10.68932198	      5.30024590	    107.91254568	      1.88342923	     19.48133096	      3.17006182	      0.00000000	      0.00000000	     36.08468558	    -17.52494856	     -5.01268346	     41.95727666	      0.73229262	    -11.36954766	     -8.75384672	      0.00000000	      0.00000000	    -67.39243006	     10.42726505	     14.24356411	     89.60833786	    -14.92496681	     34.59902430	     68.11031648	     43.75356785	      0.00000000	      0.00000000	     64.75731166	    -26.51613136	      8.01437995	     75.22332161	     44.79898035	      0.00000000	      0.00000000
      5.03000000	    -14.01091654	     -9.92367879	    -11.21691409	      0.18517875	      1.05950161	     -0.26804771	      0.00000000	      0.50000000	      0.00000000	      0.25000000	     82.73727348	     10.84377077	      4.84037135	    106.03174870	      1.85060313	     20.47310790	      2.90641213	      0.00000000	      0.00000000	     36.47187874	    -17.76641776	     -4.53873553	     44.14434914	      0.77046424	    -11.79541735	     -9.74752518	      0.00000000	      0.00000000	    -67.81917432	     10.24320614	     14.20296121	     89.61225013	    -14.68519715	     34.78074347	     68.25642543	     43.67154554	      0.00000000	      0.00000000	     64.87045942	    -26.93811848	      7.81459988	     75.19871274	     44.79431294	      0.00000000	      0.00000000
      5.03500000	    -14.05835078	    -10.37906903	    -11.21898295	      0.18502888	      1.06075595	     -0.26773467	      0.00000000	      0.50000000	      0.00000000	      0.25000000	     82.05978023	     10.73572660	      3.97976294	    103.87075866	      1.81288674	     21.33481690	      2.65848569	      0.00000000	      0.00000000	     37.18468431	    -18.02575716	     -3.39585418	     46.32903247	      0.80859416	    -12.38876620	    -11.05225739	      0.00000000	      0.00000000	    -68.22353990	     10.51625033	     14.24334333	     89.62533757	    -14.24896371	     35.00264053	     68.49995495	     43.51319122	      0.00000000	      0.00000000	     64.83638389	    -27.72526494	      7.53707181	     75.37162405	     44.83339342	      0.00000000	      0.00000000
      5.04000000	    -14.13274590	    -10.54010830	    -11.18938497	      0.18520630	      1.06159106	     -0.26758781	      0.00000000	      0.50000000	      0.00000000	      0.25000000	     81.33890895	     10.40929261	      3.36250777	    101.68786328	      1.77478802	     22.21098158	      2.56668883	      0.00000000	      0.00000000	     37.99144582	    -17.97733858	     -2.41740197	     48.63563631	      0.84885199	    -12.93767916	    -12.01049556	      0.00000000	      0.00000000	    -68.53806748	     10.78019223	     13.24895158	     89.63736084	    -12.51260099	     35.06462964	     68.22903870	     41.46033749	      0.00000000	      0.00000000	     63.35235923	    -29.69584613	      6.35847624	     77.57927566	     45.42762631	      0.00000000	      0.00000000
      5.04500000	    -13.98201956	    -10.68686264	    -11.26630799	      0.18552931	      1.06275400	     -0.26716219	      0.00000000	      0.50000000	      0.00000000	      0.25000000	     80.26161990	     10.23084004	      2.81398723	     99.37139715	      1.73435806	     23.08046730	      2.65239155	      0.00000000	      0.00000000	     38.49418108	    -17.98436249	     -1.64468973	     50.94643151	      0.88918297	    -13.28935437	    -12.81332614	      0.00000000	      0.00000000	    -68.91690955	     10.67342504	     13.10718699	     89.63766164	    -12.38306891	     35.24576590	     68.34709350	     41.31027123	      0.00000000	      0.00000000	     63.39678048	    -30.07125784	      6.21007888	     77.64629390	     45.45300610	      0.00000000	      0.00000000
      5.05000000	    -13.92478341	    -10.78341656	    -11.23943398	      0.18587417	      1.06356900	     -0.26697790	      0.00000000	      0.50000000	      0.00000000	      0.25000000	     79.20479529	      9.85957045	      2.25711342	     96.93559035	      1.69184521	     23.80505009	      2.94613634	      0.00000000	      0.00000000	     39.21110933	    -17.86924455	     -0.80162574	     53.34571534	      0.93105837	    -13.73392582	    -13.63087027	      0.00000000	      0.00000000	    -69.17666301	     10.73074958	     12.83532963	     89.63804129	    -12.15361483	     35.40725457	     68.46568451	     41.08949958	      0.00000000	      0.00000000	     63.03913512	    -30.61341923	      6.03470642	     78.00029426	     45.54177643	      0.00000000	      0.00000000
      5.05500000	    -13.72618220	    -10.75171242	    -11.24995171	      0.18631645	      1.06435906	     -0.26640109	      0.00000000	      0.50000000	      0.00000000	      0.25000000	     77.96808231	      9.55881363	      1.82950935	     94.47479750	      1.64889628	     24.40952173	      3.25369624	      0.00000000	      0.00000000	     39.76697366	    -17.69710737	     -0.11703371	     55.82973991	      0.97441278	    -13.88124706	    -14.43604661	      0.00000000	      0.00000000	    -69.46111051	     10.53921316	     12.41535754	     89.63609040	    -11.97381910	     35.50638210	     68.46712783	     40.91850451	      0.00000000	      0.00000000	     62.82661797	    -31.09213026	      5.81641851	     78.43648310	     45.62819766	      0.00000000	      0.00000000
